solid OpenSCAD_Model
  facet normal 1 -0 0
    outer loop
      vertex 86.51 16.32 7.5
      vertex 86.51 82.38 0
      vertex 86.51 82.38 7.5
    endloop
  endfacet
  facet normal 1 0 0
    outer loop
      vertex 86.51 82.38 0
      vertex 86.51 16.32 7.5
      vertex 86.51 16.32 0
    endloop
  endfacet
  facet normal 0 0 1
    outer loop
      vertex 28.34 27.14 7.5
      vertex 10.61 27.14 7.5
      vertex 28.34 15.17 7.5
    endloop
  endfacet
  facet normal -0 0 1
    outer loop
      vertex 75.9 27.14 7.5
      vertex 86.51 16.32 7.5
      vertex 86.51 82.38 7.5
    endloop
  endfacet
  facet normal 0 0 1
    outer loop
      vertex 86.51 16.32 7.5
      vertex 75.9 27.14 7.5
      vertex 80.46 16.32 7.5
    endloop
  endfacet
  facet normal 0 0 1
    outer loop
      vertex 75.9 27.14 7.5
      vertex 86.51 82.38 7.5
      vertex 75.9 72.2 7.5
    endloop
  endfacet
  facet normal 0 0 1
    outer loop
      vertex 86.51 82.38 7.5
      vertex 10.61 72.2 7.5
      vertex 75.9 72.2 7.5
    endloop
  endfacet
  facet normal 0 0 1
    outer loop
      vertex 0 82.38 7.5
      vertex 10.61 27.14 7.5
      vertex 10.61 72.2 7.5
    endloop
  endfacet
  facet normal -0 0 1
    outer loop
      vertex 0 82.38 7.5
      vertex 10.61 72.2 7.5
      vertex 86.51 82.38 7.5
    endloop
  endfacet
  facet normal 0 0 1
    outer loop
      vertex 10.61 27.14 7.5
      vertex 0 82.38 7.5
      vertex 0 16.32 7.5
    endloop
  endfacet
  facet normal 0 0 1
    outer loop
      vertex 10.61 27.14 7.5
      vertex 0 16.32 7.5
      vertex 6.05 16.32 7.5
    endloop
  endfacet
  facet normal 0 0 1
    outer loop
      vertex 58.18 15.17 7.5
      vertex 80.46 16.32 7.5
      vertex 75.9 27.14 7.5
    endloop
  endfacet
  facet normal 0 0 1
    outer loop
      vertex 58.18 15.17 7.5
      vertex 75.9 27.14 7.5
      vertex 58.18 27.14 7.5
    endloop
  endfacet
  facet normal 0 0 1
    outer loop
      vertex 80.46 16.32 7.5
      vertex 58.18 15.17 7.5
      vertex 80.46 0 7.5
    endloop
  endfacet
  facet normal -0 0 1
    outer loop
      vertex 28.34 15.17 7.5
      vertex 80.46 0 7.5
      vertex 58.18 15.17 7.5
    endloop
  endfacet
  facet normal -0 0 1
    outer loop
      vertex 6.05 16.32 7.5
      vertex 28.34 15.17 7.5
      vertex 10.61 27.14 7.5
    endloop
  endfacet
  facet normal 0 0 1
    outer loop
      vertex 6.05 0 7.5
      vertex 28.34 15.17 7.5
      vertex 6.05 16.32 7.5
    endloop
  endfacet
  facet normal 0 0 1
    outer loop
      vertex 28.34 15.17 7.5
      vertex 6.05 0 7.5
      vertex 80.46 0 7.5
    endloop
  endfacet
  facet normal 0 0 -1
    outer loop
      vertex 58.18 15.17 0
      vertex 80.46 16.32 0
      vertex 80.46 0 0
    endloop
  endfacet
  facet normal -0 0 -1
    outer loop
      vertex 80.46 16.32 0
      vertex 58.18 15.17 0
      vertex 75.9 27.14 0
    endloop
  endfacet
  facet normal 0 0 -1
    outer loop
      vertex 80.46 0 0
      vertex 28.34 15.17 0
      vertex 58.18 15.17 0
    endloop
  endfacet
  facet normal 0 0 -1
    outer loop
      vertex 28.34 15.17 0
      vertex 10.61 27.14 0
      vertex 28.34 27.14 0
    endloop
  endfacet
  facet normal 0 0 -1
    outer loop
      vertex 28.34 15.17 0
      vertex 6.05 16.32 0
      vertex 10.61 27.14 0
    endloop
  endfacet
  facet normal 0 0 -1
    outer loop
      vertex 6.05 16.32 0
      vertex 28.34 15.17 0
      vertex 6.05 0 0
    endloop
  endfacet
  facet normal 0 0 -1
    outer loop
      vertex 6.05 0 0
      vertex 28.34 15.17 0
      vertex 80.46 0 0
    endloop
  endfacet
  facet normal 0 0 -1
    outer loop
      vertex 75.9 27.14 0
      vertex 86.51 16.32 0
      vertex 80.46 16.32 0
    endloop
  endfacet
  facet normal 0 0 -1
    outer loop
      vertex 86.51 16.32 0
      vertex 75.9 27.14 0
      vertex 86.51 82.38 0
    endloop
  endfacet
  facet normal 0 0 -1
    outer loop
      vertex 75.9 72.2 0
      vertex 86.51 82.38 0
      vertex 75.9 27.14 0
    endloop
  endfacet
  facet normal 0 0 -1
    outer loop
      vertex 10.61 72.2 0
      vertex 86.51 82.38 0
      vertex 75.9 72.2 0
    endloop
  endfacet
  facet normal 0 0 -1
    outer loop
      vertex 0 16.32 0
      vertex 10.61 27.14 0
      vertex 6.05 16.32 0
    endloop
  endfacet
  facet normal 0 0 -1
    outer loop
      vertex 0 82.38 0
      vertex 10.61 27.14 0
      vertex 0 16.32 0
    endloop
  endfacet
  facet normal 0 0 -1
    outer loop
      vertex 10.61 72.2 0
      vertex 0 82.38 0
      vertex 86.51 82.38 0
    endloop
  endfacet
  facet normal 0 0 -1
    outer loop
      vertex 10.61 27.14 0
      vertex 0 82.38 0
      vertex 10.61 72.2 0
    endloop
  endfacet
  facet normal -0 0 -1
    outer loop
      vertex 75.9 27.14 0
      vertex 58.18 15.17 0
      vertex 58.18 27.14 0
    endloop
  endfacet
  facet normal -1 0 0
    outer loop
      vertex 0 16.32 0
      vertex 0 82.38 7.5
      vertex 0 82.38 0
    endloop
  endfacet
  facet normal -1 -0 0
    outer loop
      vertex 0 82.38 7.5
      vertex 0 16.32 0
      vertex 0 16.32 7.5
    endloop
  endfacet
  facet normal 0 1 -0
    outer loop
      vertex 86.51 82.38 0
      vertex 0 82.38 7.5
      vertex 86.51 82.38 7.5
    endloop
  endfacet
  facet normal 0 1 0
    outer loop
      vertex 0 82.38 7.5
      vertex 86.51 82.38 0
      vertex 0 82.38 0
    endloop
  endfacet
  facet normal 0 -1 0
    outer loop
      vertex 6.05 0 0
      vertex 80.46 0 7.5
      vertex 6.05 0 7.5
    endloop
  endfacet
  facet normal 0 -1 -0
    outer loop
      vertex 80.46 0 7.5
      vertex 6.05 0 0
      vertex 80.46 0 0
    endloop
  endfacet
  facet normal -1 0 0
    outer loop
      vertex 6.05 0 0
      vertex 6.05 16.32 7.5
      vertex 6.05 16.32 0
    endloop
  endfacet
  facet normal -1 -0 0
    outer loop
      vertex 6.05 16.32 7.5
      vertex 6.05 0 0
      vertex 6.05 0 7.5
    endloop
  endfacet
  facet normal 0 -1 0
    outer loop
      vertex 0 16.32 0
      vertex 6.05 16.32 7.5
      vertex 0 16.32 7.5
    endloop
  endfacet
  facet normal 0 -1 -0
    outer loop
      vertex 6.05 16.32 7.5
      vertex 0 16.32 0
      vertex 6.05 16.32 0
    endloop
  endfacet
  facet normal 1 -0 0
    outer loop
      vertex 80.46 0 7.5
      vertex 80.46 16.32 0
      vertex 80.46 16.32 7.5
    endloop
  endfacet
  facet normal 1 0 0
    outer loop
      vertex 80.46 16.32 0
      vertex 80.46 0 7.5
      vertex 80.46 0 0
    endloop
  endfacet
  facet normal 0 -1 0
    outer loop
      vertex 80.46 16.32 0
      vertex 86.51 16.32 7.5
      vertex 80.46 16.32 7.5
    endloop
  endfacet
  facet normal 0 -1 -0
    outer loop
      vertex 86.51 16.32 7.5
      vertex 80.46 16.32 0
      vertex 86.51 16.32 0
    endloop
  endfacet
  facet normal -1 0 0
    outer loop
      vertex 75.9 27.14 0
      vertex 75.9 72.2 7.5
      vertex 75.9 72.2 0
    endloop
  endfacet
  facet normal -1 -0 0
    outer loop
      vertex 75.9 72.2 7.5
      vertex 75.9 27.14 0
      vertex 75.9 27.14 7.5
    endloop
  endfacet
  facet normal 1 -0 0
    outer loop
      vertex 10.61 27.14 7.5
      vertex 10.61 72.2 0
      vertex 10.61 72.2 7.5
    endloop
  endfacet
  facet normal 1 0 0
    outer loop
      vertex 10.61 72.2 0
      vertex 10.61 27.14 7.5
      vertex 10.61 27.14 0
    endloop
  endfacet
  facet normal 0 -1 0
    outer loop
      vertex 10.61 72.2 0
      vertex 75.9 72.2 7.5
      vertex 10.61 72.2 7.5
    endloop
  endfacet
  facet normal 0 -1 -0
    outer loop
      vertex 75.9 72.2 7.5
      vertex 10.61 72.2 0
      vertex 75.9 72.2 0
    endloop
  endfacet
  facet normal 0 1 -0
    outer loop
      vertex 28.34 27.14 0
      vertex 10.61 27.14 7.5
      vertex 28.34 27.14 7.5
    endloop
  endfacet
  facet normal 0 1 0
    outer loop
      vertex 10.61 27.14 7.5
      vertex 28.34 27.14 0
      vertex 10.61 27.14 0
    endloop
  endfacet
  facet normal 0 1 -0
    outer loop
      vertex 75.9 27.14 0
      vertex 58.18 27.14 7.5
      vertex 75.9 27.14 7.5
    endloop
  endfacet
  facet normal 0 1 0
    outer loop
      vertex 58.18 27.14 7.5
      vertex 75.9 27.14 0
      vertex 58.18 27.14 0
    endloop
  endfacet
  facet normal -1 0 0
    outer loop
      vertex 58.18 15.17 0
      vertex 58.18 27.14 7.5
      vertex 58.18 27.14 0
    endloop
  endfacet
  facet normal -1 -0 0
    outer loop
      vertex 58.18 27.14 7.5
      vertex 58.18 15.17 0
      vertex 58.18 15.17 7.5
    endloop
  endfacet
  facet normal 1 -0 0
    outer loop
      vertex 28.34 15.17 7.5
      vertex 28.34 27.14 0
      vertex 28.34 27.14 7.5
    endloop
  endfacet
  facet normal 1 0 0
    outer loop
      vertex 28.34 27.14 0
      vertex 28.34 15.17 7.5
      vertex 28.34 15.17 0
    endloop
  endfacet
  facet normal 0 1 -0
    outer loop
      vertex 58.18 15.17 0
      vertex 28.34 15.17 7.5
      vertex 58.18 15.17 7.5
    endloop
  endfacet
  facet normal 0 1 0
    outer loop
      vertex 28.34 15.17 7.5
      vertex 58.18 15.17 0
      vertex 28.34 15.17 0
    endloop
  endfacet
endsolid OpenSCAD_Model
